# Blender v2.93.0 OBJ File: 'NatureThing.blend1'
# www.blender.org
mtllib Tree.mtl
o Tree_Cylinder.001
v 0.000104 -0.201559 -0.600284
v 0.000000 0.201217 -0.488727
v 0.519681 -0.249149 -0.300155
v 0.423250 0.201217 -0.244363
v 0.520151 -0.194589 0.300137
v 0.423250 0.201217 0.244363
v -0.000239 -0.244972 0.600245
v -0.000000 0.201217 0.488727
v -0.519795 -0.179976 0.300051
v -0.423250 0.201217 0.244363
v -0.520038 -0.207847 -0.300085
v -0.423250 0.201217 -0.244363
v 0.000000 0.155763 -0.779523
v 0.000000 0.513070 -0.433923
v 0.675086 0.155763 -0.389761
v 0.375788 0.513070 -0.216961
v 0.675086 0.198583 0.389761
v 0.375788 0.513070 0.216961
v -0.000000 0.155763 0.779523
v -0.000000 0.513070 0.433923
v -0.675086 0.155763 0.389761
v -0.375788 0.513070 0.216961
v -0.675086 0.117351 -0.389761
v -0.375788 0.513070 -0.216961
v 0.000000 0.518840 -0.638796
v 0.000000 0.782875 -0.355587
v 0.553214 0.490073 -0.319398
v 0.307948 0.782875 -0.177794
v 0.553214 0.490073 0.319398
v 0.307948 0.782875 0.177794
v -0.000000 0.444817 0.638796
v -0.000000 0.782875 0.355587
v -0.553214 0.490073 0.319398
v -0.307948 0.782875 0.177794
v -0.553214 0.490073 -0.319398
v -0.307948 0.782875 -0.177794
v 0.000000 0.755167 -0.563427
v 0.000000 1.013422 -0.313633
v 0.487942 0.809265 -0.281713
v 0.271614 1.013422 -0.156816
v 0.487942 0.755167 0.281713
v 0.271614 1.028603 0.156816
v -0.000000 0.755167 0.563427
v -0.000000 1.073198 0.313633
v -0.487942 0.755167 0.281713
v -0.271614 1.028603 0.156816
v -0.487942 0.755167 -0.281713
v -0.271614 1.013422 -0.156816
v 0.000000 1.003476 -0.484819
v -0.047359 1.706768 0.000000
v 0.419866 1.003476 -0.242410
v 0.419866 1.003476 0.242410
v -0.000000 1.076391 0.484819
v -0.419866 1.003476 0.242410
v -0.419866 1.003476 -0.242410
v 0.000000 -0.201217 -0.877976
v 0.760349 -0.255450 -0.438988
v 0.760349 -0.201217 0.438988
v -0.000000 -0.245317 0.877976
v -0.760349 -0.173678 0.438988
v -0.760349 -0.201217 -0.438988
v 0.007506 0.069607 -0.231248
v 0.207949 0.051248 -0.115464
v 0.208130 0.072296 0.116118
v 0.007373 0.052859 0.231894
v -0.193062 0.077933 0.116084
v -0.193156 0.067181 -0.115437
v 0.000000 -1.108140 -0.345906
v 0.000000 -0.628140 -0.240000
v 0.268096 -1.108140 -0.154785
v 0.207846 -0.628140 -0.120000
v 0.268096 -1.108140 0.227577
v -0.000000 -1.108140 0.309571
v -0.000000 -0.628140 0.240000
v -0.329978 -1.108140 0.154785
v -0.207846 -0.628140 0.120000
v -0.268096 -1.108140 -0.154785
v -0.207846 -0.628140 -0.120000
v 0.207846 0.099770 -0.120000
v 0.000000 0.099770 -0.240000
v 0.207846 0.099770 0.120000
v 0.000000 0.099770 0.240000
v -0.207846 0.099770 0.120000
v -0.207846 0.099770 -0.120000
v 0.207846 -0.312269 0.120000
v 0.155013 -0.628140 0.176399
v 0.221560 -0.825547 0.144485
v 0.207846 -0.628140 0.007201
v 0.000000 -0.123980 -0.240000
v 0.207846 -0.123980 -0.120000
v 0.000000 -0.123980 0.240000
v -0.207846 -0.123980 -0.120000
v -0.148027 -0.123980 0.184840
v -0.207846 0.005699 0.120000
v -0.207846 -0.123980 -0.009680
v -0.207846 -0.498321 0.120000
vt 1.000000 0.500000
vt 1.000000 1.000000
vt 0.833333 1.000000
vt 0.833333 0.500000
vt 0.666667 0.500000
vt 0.666667 0.886196
vt 0.588334 1.000000
vt 0.500000 1.000000
vt 0.500000 0.500000
vt 0.666667 1.000000
vt 0.666667 1.000000
vt 0.500000 1.000000
vt 0.500000 1.000000
vt 0.333333 1.000000
vt 0.333333 0.500000
vt 0.833333 1.000000
vt 1.000000 1.000000
vt 1.000000 1.000000
vt 0.833333 1.000000
vt 0.166667 1.000000
vt 0.166667 0.500000
vt -0.000000 1.000000
vt -0.000000 0.500000
vt 0.750000 0.490000
vt 0.957846 0.370000
vt 0.957846 0.130000
vt 0.750000 0.010000
vt 0.542154 0.130000
vt 0.542154 0.370000
vt 0.457846 0.370000
vt 0.250000 0.490000
vt 0.042154 0.370000
vt 0.042154 0.130000
vt 0.250000 0.010000
vt 0.457846 0.130000
vt -0.000000 1.000000
vt 0.166667 1.000000
vt 0.166667 1.000000
vt -0.000000 1.000000
vt 0.744999 1.000000
vt 0.333333 1.000000
vt 0.243278 1.000000
vt 0.333333 1.000000
vt 0.423388 1.000000
vt 0.333333 1.000000
vt 1.000000 0.500000
vt 1.000000 1.000000
vt 0.833333 1.000000
vt 0.833333 0.500000
vt 0.666667 1.000000
vt 0.666667 0.500000
vt 0.500000 1.000000
vt 0.500000 0.500000
vt 0.333333 1.000000
vt 0.333333 0.500000
vt 0.457846 0.370000
vt 0.250000 0.490000
vt 0.042154 0.370000
vt 0.042154 0.130000
vt 0.250000 0.010000
vt 0.457846 0.130000
vt 0.166667 1.000000
vt 0.166667 0.500000
vt -0.000000 1.000000
vt -0.000000 0.500000
vt 0.607820 0.167983
vt 0.607895 0.332028
vt 0.607895 0.332028
vt 0.607820 0.167983
vt 1.000000 0.500000
vt 1.000000 1.000000
vt 0.833333 1.000000
vt 0.833333 0.500000
vt 0.666667 1.000000
vt 0.666667 0.500000
vt 0.500000 1.000000
vt 0.500000 0.500000
vt 0.333333 1.000000
vt 0.333333 0.500000
vt 0.457846 0.370000
vt 0.250000 0.490000
vt 0.042154 0.370000
vt 0.042154 0.130000
vt 0.250000 0.010000
vt 0.457846 0.130000
vt 0.166667 1.000000
vt 0.166667 0.500000
vt -0.000000 1.000000
vt -0.000000 0.500000
vt 0.750000 0.490000
vt 0.957846 0.370000
vt 0.957846 0.130000
vt 0.750000 0.010000
vt 0.542154 0.130000
vt 0.542154 0.370000
vt 1.000000 0.500000
vt 1.000000 1.000000
vt 0.833333 1.000000
vt 0.833333 0.500000
vt 0.666667 1.000000
vt 0.666667 0.500000
vt 0.500000 1.000000
vt 0.500000 0.500000
vt 0.333333 1.000000
vt 0.333333 0.500000
vt 0.457846 0.370000
vt 0.250000 0.490000
vt 0.042154 0.370000
vt 0.042154 0.130000
vt 0.250000 0.010000
vt 0.457846 0.130000
vt 0.166667 1.000000
vt 0.166667 0.500000
vt -0.000000 1.000000
vt -0.000000 0.500000
vt 0.750000 0.490000
vt 0.957846 0.370000
vt 0.957846 0.130000
vt 0.750000 0.010000
vt 0.542154 0.130000
vt 0.542154 0.370000
vt 1.000000 0.500000
vt 1.000000 1.000000
vt 0.833333 1.000000
vt 0.833333 0.500000
vt 0.666667 1.000000
vt 0.666667 0.500000
vt 0.500000 1.000000
vt 0.500000 0.500000
vt 0.333333 1.000000
vt 0.333333 0.500000
vt 0.457846 0.370000
vt 0.250000 0.490000
vt 0.042154 0.370000
vt 0.042154 0.130000
vt 0.250000 0.010000
vt 0.457846 0.130000
vt 0.166667 1.000000
vt 0.166667 0.500000
vt -0.000000 1.000000
vt -0.000000 0.500000
vt 0.750000 0.490000
vt 0.957846 0.370000
vt 0.957846 0.130000
vt 0.750000 0.010000
vt 0.542154 0.130000
vt 0.542154 0.370000
vt 1.000000 0.500000
vt 0.833333 1.000000
vt 0.833333 0.500000
vt 0.666667 1.000000
vt 0.666667 0.500000
vt 0.500000 1.000000
vt 0.500000 0.500000
vt 0.333333 1.000000
vt 0.333333 0.500000
vt 0.166667 1.000000
vt 0.166667 0.500000
vt -0.000000 1.000000
vt -0.000000 0.500000
vt 0.750000 0.490000
vt 0.957846 0.370000
vt 0.957846 0.130000
vt 0.750000 0.010000
vt 0.542154 0.130000
vt 0.542154 0.370000
vt 0.892161 0.332045
vt 0.749972 0.414094
vt 0.750000 0.490000
vt 0.957846 0.370000
vt 0.892042 0.167962
vt 0.957846 0.130000
vt 0.750073 0.085913
vt 0.750000 0.010000
vt 0.542154 0.130000
vt 0.542154 0.370000
vt 0.749972 0.414094
vt 0.892161 0.332045
vt 0.892042 0.167962
vt 0.750073 0.085913
vn 0.5405 0.1551 -0.8269
vn 0.4028 0.1724 0.8989
vn 0.4810 0.0165 0.8766
vn -0.4496 0.1529 0.8800
vn 0.5000 0.0000 -0.8660
vn -0.9765 0.1855 -0.1100
vn -0.5405 0.1551 -0.8269
vn 0.0000 -1.0000 -0.0000
vn 0.0000 1.0000 -0.0000
vn -0.5000 0.0000 -0.8660
vn 0.9909 0.1334 0.0197
vn -1.0000 -0.0000 0.0000
vn 0.9492 -0.1058 0.2964
vn 1.0000 0.0000 0.0000
vn 0.9207 0.2639 0.2875
vn -0.4682 0.0651 0.8812
vn -0.9170 -0.2820 0.2820
vn -0.4589 -0.0299 0.8880
vn -0.9509 0.1013 0.2924
vn 0.4144 0.6172 -0.6688
vn 0.7864 0.6172 -0.0245
vn 0.3741 0.6218 0.6881
vn -0.3575 0.6341 0.6857
vn -0.7554 0.6552 -0.0132
vn -0.3833 0.6421 -0.6639
vn 0.6315 -0.7745 0.0357
vn 0.3833 0.6421 -0.6639
vn 0.7464 0.6651 -0.0235
vn 0.3529 0.6651 0.6581
vn -0.3833 0.6421 0.6639
vn -0.7827 0.6221 -0.0197
vn -0.4084 0.6221 -0.6679
vn 0.0301 -0.9994 0.0174
vn 0.3917 0.6609 -0.6402
vn 0.7666 0.6421 0.0000
vn 0.3704 0.6136 0.6974
vn -0.3704 0.6136 0.6974
vn -0.7666 0.6421 0.0000
vn -0.3917 0.6609 -0.6402
vn 0.0000 -0.9993 -0.0386
vn 0.3283 0.6826 -0.6529
vn 0.7408 0.6711 0.0298
vn 0.4294 0.5901 0.6837
vn -0.4294 0.5901 0.6837
vn 0.0000 0.9968 -0.0794
vn -0.7756 0.6311 -0.0109
vn 0.0277 -0.9995 -0.0160
vn 0.4229 0.5334 -0.7325
vn 0.8329 0.5534 0.0000
vn 0.4860 0.5554 0.6747
vn -0.4955 0.5058 0.7061
vn -0.8837 0.4681 0.0000
vn -0.4356 0.4908 -0.7545
vn -0.0000 -0.9987 0.0501
vn -0.0657 -0.9976 -0.0237
vn -0.0268 -0.9969 0.0734
vn 0.0480 -0.9979 -0.0444
vn -0.0859 -0.9957 -0.0353
vn -0.0269 -0.9989 0.0375
vn -0.0036 -0.9999 -0.0147
vn -0.0269 -0.9996 -0.0012
vn -0.2782 -0.7441 -0.6074
vn -0.3862 -0.7396 0.5512
vn 0.3294 -0.7640 0.5548
vn 0.2550 -0.7545 -0.6048
vn -0.6712 -0.7381 0.0676
usemtl Wood
s off
f 68/1/1 69/2/1 71/3/1 70/4/1
f 72/5/2 87/6/2 86/7/2 74/8/2 73/9/2
f 74/8/3 86/7/3 85/10/3 81/11/3 82/12/3 91/13/3
f 73/9/4 74/8/4 76/14/4 75/15/4
f 90/16/5 89/17/5 80/18/5 79/19/5
f 75/15/6 76/14/6 78/20/6 77/21/6
f 77/21/7 78/20/7 69/22/7 68/23/7
f 68/24/8 70/25/8 72/26/8 73/27/8 75/28/8 77/29/8
f 79/30/9 80/31/9 84/32/9 83/33/9 82/34/9 81/35/9
f 89/36/10 92/37/10 84/38/10 80/39/10
f 70/4/11 71/3/11 88/40/11 87/6/11 72/5/11
f 78/20/12 76/14/12 96/41/12 95/42/12 92/37/12
f 85/10/13 86/7/13 88/40/13
f 85/10/14 88/40/14 71/3/14 90/16/14 79/19/14 81/11/14
f 88/40/15 86/7/15 87/6/15
f 94/43/16 93/44/16 91/13/16 82/12/16 83/45/16
f 92/37/12 95/42/12 94/43/12 83/45/12 84/38/12
f 69/22/10 78/20/10 92/37/10 89/36/10
f 71/3/5 69/2/5 89/17/5 90/16/5
f 93/44/17 94/43/17 95/42/17
f 76/14/18 74/8/18 91/13/18 93/44/18 96/41/18
f 95/42/19 96/41/19 93/44/19
usemtl Leaves
f 56/46/20 2/47/20 4/48/20 57/49/20
f 57/49/21 4/48/21 6/50/21 58/51/21
f 58/51/22 6/50/22 8/52/22 59/53/22
f 59/53/23 8/52/23 10/54/23 60/55/23
f 4/56/9 2/57/9 12/58/9 10/59/9 8/60/9 6/61/9
f 60/55/24 10/54/24 12/62/24 61/63/24
f 61/63/25 12/62/25 2/64/25 56/65/25
f 9/66/26 11/67/26 67/68/26 66/69/26
f 13/70/27 14/71/27 16/72/27 15/73/27
f 15/73/28 16/72/28 18/74/28 17/75/28
f 17/75/29 18/74/29 20/76/29 19/77/29
f 19/77/30 20/76/30 22/78/30 21/79/30
f 16/80/9 14/81/9 24/82/9 22/83/9 20/84/9 18/85/9
f 21/79/31 22/78/31 24/86/31 23/87/31
f 23/87/32 24/86/32 14/88/32 13/89/32
f 13/90/33 15/91/33 17/92/33 19/93/33 21/94/33 23/95/33
f 25/96/34 26/97/34 28/98/34 27/99/34
f 27/99/35 28/98/35 30/100/35 29/101/35
f 29/101/36 30/100/36 32/102/36 31/103/36
f 31/103/37 32/102/37 34/104/37 33/105/37
f 28/106/9 26/107/9 36/108/9 34/109/9 32/110/9 30/111/9
f 33/105/38 34/104/38 36/112/38 35/113/38
f 35/113/39 36/112/39 26/114/39 25/115/39
f 25/116/40 27/117/40 29/118/40 31/119/40 33/120/40 35/121/40
f 37/122/41 38/123/41 40/124/41 39/125/41
f 39/125/42 40/124/42 42/126/42 41/127/42
f 41/127/43 42/126/43 44/128/43 43/129/43
f 43/129/44 44/128/44 46/130/44 45/131/44
f 40/132/45 38/133/45 48/134/45 46/135/45 44/136/45 42/137/45
f 45/131/46 46/130/46 48/138/46 47/139/46
f 47/139/25 48/138/25 38/140/25 37/141/25
f 37/142/47 39/143/47 41/144/47 43/145/47 45/146/47 47/147/47
f 49/148/48 50/149/48 51/150/48
f 51/150/49 50/151/49 52/152/49
f 52/152/50 50/153/50 53/154/50
f 53/154/51 50/155/51 54/156/51
f 54/156/52 50/157/52 55/158/52
f 55/158/53 50/159/53 49/160/53
f 49/161/54 51/162/54 52/163/54 53/164/54 54/165/54 55/166/54
f 3/167/55 1/168/55 56/169/55 57/170/55
f 5/171/56 3/167/56 57/170/56 58/172/56
f 7/173/57 5/171/57 58/172/57 59/174/57
f 9/66/58 7/173/58 59/174/58 60/175/58
f 11/67/59 9/66/59 60/175/59 61/176/59
f 1/168/60 11/67/60 61/176/60 56/169/60
f 62/177/61 63/178/61 64/179/61 65/180/61 66/69/61 67/68/61
f 5/171/62 7/173/62 65/180/62 64/179/62
f 1/168/63 3/167/63 63/178/63 62/177/63
f 11/67/64 1/168/64 62/177/64 67/68/64
f 7/173/65 9/66/65 66/69/65 65/180/65
f 3/167/66 5/171/66 64/179/66 63/178/66
