# Blender v2.93.0 OBJ File: 'NatureThing.blend1'
# www.blender.org
mtllib Log.mtl
o Log_Cylinder.002
v -0.155521 0.139043 0.882005
v 0.155521 0.160546 -0.853724
v -0.274107 0.069522 0.861095
v 0.018597 0.080273 -0.877868
v -0.276765 -0.070565 0.859015
v 0.018597 -0.080273 -0.877868
v -0.155521 -0.139043 0.882005
v 0.155521 -0.160546 -0.853724
v -0.036936 -0.069522 0.902915
v 0.292446 -0.080273 -0.829581
v -0.036936 0.069522 0.902915
v 0.292446 0.080273 -0.829581
v 0.018094 0.228290 0.008667
v -0.188425 0.049069 -0.031196
v -0.162152 -0.105324 -0.028592
v 0.017736 -0.190548 0.011614
v 0.213808 -0.105323 0.044533
v 0.126821 0.223258 -0.719236
v -0.063589 -0.111629 -0.752810
v 0.126821 -0.223258 -0.719236
v 0.317231 -0.111629 -0.685661
v 0.317231 0.111629 -0.685661
v -0.298101 0.102979 0.663452
v -0.298101 -0.102979 0.663452
v -0.122446 -0.205958 0.694425
v 0.053210 -0.102979 0.725397
v 0.053210 0.102979 0.725397
v -0.122446 0.205958 0.694425
v -0.160037 0.211324 0.879800
v -0.339998 0.108151 0.849477
v -0.155521 -0.216302 0.882005
v 0.028955 -0.108151 0.914533
v 0.035657 0.121971 0.916727
v -0.150761 0.110350 0.855007
v -0.244875 0.055175 0.838413
v -0.244875 -0.055175 0.838413
v -0.150761 -0.110350 0.855007
v -0.056647 -0.055175 0.871602
v -0.056647 0.055175 0.871602
v 0.251723 0.106810 -0.167025
v 0.137978 0.154666 0.025178
v 0.175691 0.104344 0.237782
v 0.216290 0.010484 0.039976
v -0.027793 0.132615 -0.746498
v -0.065086 0.116655 -0.794453
v -0.063589 0.069657 -0.752810
v -0.125332 0.108057 -0.401870
v -0.339998 0.003142 0.849477
v -0.315554 -0.105134 0.740943
v -0.245080 -0.163797 0.866213
v -0.069659 0.132013 -0.921710
v 0.155521 0.264027 -0.882005
v -0.069659 -0.132013 -0.921710
v 0.155521 -0.264027 -0.882005
v 0.380701 -0.132013 -0.842300
v 0.380701 0.132013 -0.842300
vt 0.833333 0.750000
vt 0.833333 0.945593
vt 0.802001 0.957439
vt 0.666667 0.957439
vt 0.666667 0.750000
vt 0.666667 1.000000
vt 0.500000 1.000000
vt 0.500000 0.957439
vt 0.333333 1.000000
vt 0.333333 0.957439
vt 0.166667 1.000000
vt 0.166667 0.957439
vt -0.000000 1.000000
vt -0.000000 0.957439
vt 0.616392 0.172861
vt 0.616392 0.327139
vt 0.616392 0.327139
vt 0.616392 0.172861
vt 0.099789 0.750000
vt 0.166667 0.777026
vt -0.000000 0.750000
vt 0.500000 0.553169
vt 0.500000 0.750000
vt 0.333333 0.750000
vt 0.333333 0.553169
vt 0.666667 0.553169
vt 0.833333 0.553169
vt 1.000000 0.553169
vt 1.000000 0.750000
vt 0.166667 0.553169
vt 0.166667 0.723632
vt -0.000000 0.553169
vt 0.241705 0.750000
vt 1.000000 0.957439
vt 1.000000 1.000000
vt 0.833333 1.000000
vt 0.833333 0.967932
vt 0.864666 0.957439
vt 1.000000 0.500000
vt 0.833333 0.500000
vt 0.580912 0.500000
vt 0.666667 0.531020
vt 0.500000 0.500000
vt 0.750000 0.095723
vt 0.883656 0.172834
vt 0.850904 0.068257
vt 0.750000 0.010000
vt 0.333333 0.500000
vt 0.166667 0.500000
vt -0.000000 0.500000
vt 0.883608 0.327139
vt 0.750000 0.404277
vt 0.750000 0.490000
vt 0.957846 0.370000
vt 0.752421 0.500000
vt 0.542154 0.130000
vt 0.542154 0.370000
vt 0.883608 0.172861
vt 0.750000 0.095723
vt 0.883608 0.172861
vt 0.883608 0.327139
vt 0.750000 0.404277
vt 0.957846 0.253486
vt 0.250000 0.395936
vt 0.376384 0.322968
vt 0.457846 0.370000
vt 0.250000 0.490000
vt 0.376384 0.177032
vt 0.457846 0.130000
vt 0.250000 0.104064
vt 0.250000 0.010000
vt 0.123616 0.177032
vt 0.042154 0.130000
vt 0.123616 0.322968
vt 0.042154 0.370000
vn -0.9853 -0.0711 -0.1553
vn -0.5178 -0.8469 0.1208
vn 0.4453 -0.8469 0.2906
vn 0.9268 0.0000 0.3755
vn 0.4453 0.8469 0.2906
vn -0.8463 0.0000 0.5327
vn 0.4996 0.8633 0.0714
vn 0.4379 -0.8947 0.0880
vn -0.4500 -0.8875 -0.0988
vn -0.9826 -0.0729 -0.1711
vn -0.5747 0.8091 -0.1227
vn 0.4907 0.8623 0.1255
vn 0.9723 -0.0197 0.2329
vn 0.4401 -0.8937 0.0879
vn -0.4624 -0.8857 -0.0422
vn -0.5178 0.8469 0.1208
vn -0.9994 0.0000 0.0359
vn -0.4809 0.8675 -0.1275
vn -0.4837 -0.8651 -0.1330
vn -0.1760 0.0088 0.9843
vn 0.5000 -0.8651 0.0405
vn 0.9938 -0.0158 0.1098
vn 0.4585 0.8886 0.0097
vn -0.1755 0.0113 0.9844
vn -0.9756 -0.0000 -0.2197
vn -0.1736 -0.0000 0.9848
vn -0.1804 -0.0026 0.9836
vn -0.1782 0.0057 0.9840
vn 0.2211 0.6248 0.7488
vn 0.2482 -0.6417 0.7257
vn -0.4815 -0.6417 0.5971
vn -0.4815 0.6417 0.5971
vn 0.5780 -0.0129 0.8159
vn 0.8045 0.4737 0.3582
vn 0.9905 -0.0206 0.1363
vn 0.8798 0.4733 -0.0440
vn -0.7837 0.3978 0.4771
vn -0.5474 0.8352 -0.0528
vn -0.8424 0.4993 -0.2028
vn -0.7200 -0.5656 0.4021
vn -0.1672 -0.0066 0.9859
vn -0.8874 -0.2729 0.3714
vn 0.3088 -0.2507 -0.9175
vn 0.4449 0.0000 -0.8956
vn 0.3088 0.2507 -0.9175
vn 0.0155 0.2636 -0.9645
vn -0.1426 0.0000 -0.9898
vn 0.0155 -0.2636 -0.9645
vn 0.1736 0.0000 -0.9848
usemtl Wood
s off
f 14/1/1 47/2/1 46/3/1 19/4/1 15/5/1
f 19/4/2 53/6/2 54/7/2 20/8/2
f 20/8/3 54/7/3 55/9/3 21/10/3
f 21/10/4 55/9/4 56/11/4 22/12/4
f 22/12/5 56/11/5 52/13/5 18/14/5
f 9/15/6 11/16/6 39/17/6 38/18/6
f 41/19/7 40/20/7 22/12/7 18/14/7 13/21/7
f 25/22/8 16/23/8 17/24/8 26/25/8
f 24/26/9 15/5/9 16/23/9 25/22/9
f 23/27/10 14/1/10 15/5/10 24/26/10
f 28/28/11 13/29/11 14/1/11 23/27/11
f 27/30/12 42/31/12 41/19/12 13/21/12 28/32/12
f 26/25/13 17/24/13 43/33/13 42/31/13 27/30/13
f 16/23/14 20/8/14 21/10/14 17/24/14
f 15/5/15 19/4/15 20/8/15 16/23/15
f 18/34/16 52/35/16 51/36/16 45/37/16 44/38/16
f 46/3/17 45/37/17 51/36/17 53/6/17 19/4/17
f 29/39/18 28/28/18 23/27/18 30/40/18
f 50/41/19 49/42/19 24/26/19 25/22/19 31/43/19
f 7/44/20 5/45/20 50/46/20 31/47/20
f 31/43/21 25/22/21 26/25/21 32/48/21
f 32/48/22 26/25/22 27/30/22 33/49/22
f 33/49/23 27/30/23 28/32/23 29/50/23
f 3/51/24 1/52/24 29/53/24 30/54/24
f 30/40/25 23/27/25 24/26/25 49/42/25 48/55/25
f 9/15/26 7/44/26 31/47/26 32/56/26
f 11/16/27 9/15/27 32/56/27 33/57/27
f 1/52/28 11/16/28 33/57/28 29/53/28
f 5/58/29 7/44/29 37/59/29 36/60/29
f 1/52/30 3/51/30 35/61/30 34/62/30
f 11/16/31 1/52/31 34/62/31 39/17/31
f 7/44/32 9/15/32 38/18/32 37/59/32
f 3/51/33 5/58/33 36/60/33 35/61/33
f 40/20/34 41/19/34 43/33/34
f 17/24/35 21/10/35 22/12/35 40/20/35 43/33/35
f 43/33/36 41/19/36 42/31/36
f 44/38/37 45/37/37 46/3/37
f 13/29/38 18/34/38 44/38/38 47/2/38 14/1/38
f 46/3/39 47/2/39 44/38/39
f 48/63/40 49/42/40 5/45/40
f 5/58/41 3/51/41 30/54/41 48/63/41
f 5/45/42 49/42/42 50/41/42
f 2/64/43 4/65/43 51/66/43 52/67/43
f 4/65/44 6/68/44 53/69/44 51/66/44
f 6/68/45 8/70/45 54/71/45 53/69/45
f 8/70/46 10/72/46 55/73/46 54/71/46
f 10/72/47 12/74/47 56/75/47 55/73/47
f 12/74/48 2/64/48 52/67/48 56/75/48
usemtl Wood_l_shade
f 4/65/49 2/64/49 12/74/49 10/72/49 8/70/49 6/68/49
f 34/62/26 35/61/26 36/60/26 37/59/26 38/18/26 39/17/26
