# Blender v2.93.0 OBJ File: 'NatureThing.blend1'
# www.blender.org
mtllib LogWAxe.mtl
o LogWAxe_Cylinder.012
v 0.000000 -0.326599 -0.390019
v 0.000000 0.328084 -0.244549
v 0.337766 -0.326599 -0.195009
v 0.211786 0.328084 -0.122275
v 0.337766 -0.326599 0.195010
v 0.211786 0.328084 0.122275
v 0.000000 -0.326599 0.390019
v 0.000000 0.328084 0.244549
v -0.337766 -0.326599 0.195009
v -0.211785 0.328084 0.122274
v -0.337766 -0.326599 -0.195009
v -0.211785 0.328084 -0.122274
v 0.282843 0.326599 -0.163300
v 0.000000 0.326599 -0.326599
v 0.282843 0.326599 0.163300
v 0.000000 0.326599 0.326599
v -0.282843 0.326599 0.163300
v -0.282843 0.326599 -0.163300
v 0.194118 0.297093 -0.112074
v 0.000000 0.297093 -0.224148
v 0.194118 0.297093 0.112074
v 0.000000 0.297093 0.224148
v -0.194118 0.297093 0.112074
v -0.194118 0.297093 -0.112074
v -0.337766 -0.326599 0.000000
v -0.282843 0.293235 0.000000
v -0.211785 0.294719 0.000000
v -0.194118 0.297093 0.000000
v 0.000000 0.000000 -0.358309
v 0.310305 0.000000 -0.179155
v 0.000000 0.000000 0.358309
v -0.310305 0.000000 0.179154
v -0.310305 -0.016682 0.000000
v 0.310305 0.000000 0.116156
v 0.305032 0.164827 0.176111
v 0.255746 0.000000 0.210654
v 0.315577 -0.164827 0.182199
v -0.310305 -0.003027 -0.146649
v -0.307572 0.064217 -0.177577
v -0.282033 0.000000 -0.195477
v -0.313037 -0.064217 -0.180732
v -0.535873 0.481621 0.008755
v -0.525193 0.468894 0.025048
v -0.385541 0.607765 0.008756
v -0.374870 0.595048 0.025048
v -0.525193 0.468894 -0.025048
v -0.535873 0.481621 -0.008755
v -0.374870 0.595048 -0.025048
v -0.385541 0.607765 -0.008757
v -0.484743 0.420687 0.025048
v -0.473530 0.407323 0.008755
v -0.334381 0.546796 0.025048
v -0.323197 0.533467 0.008756
v -0.473530 0.407323 -0.008755
v -0.484743 0.420687 -0.025048
v -0.323197 0.533467 -0.008757
v -0.334381 0.546796 -0.025048
v -0.600665 0.405724 -0.025048
v -0.611372 0.418483 -0.008751
v -0.611372 0.418483 0.008751
v -0.600665 0.405724 0.025048
v -0.559821 0.357047 -0.008751
v -0.571120 0.370513 -0.025048
v -0.571120 0.370513 0.025048
v -0.559821 0.357047 0.008751
v -0.857365 0.185733 -0.025048
v -0.868120 0.198549 -0.008744
v -0.868120 0.198549 0.008744
v -0.857365 0.185733 0.025048
v -0.820997 0.142391 -0.008744
v -0.832441 0.156030 -0.025048
v -0.832441 0.156030 0.025048
v -0.820997 0.142391 0.008744
v -0.941781 0.118642 -0.025048
v -0.952607 0.131544 -0.008733
v -0.952607 0.131544 0.008733
v -0.941781 0.118642 0.025048
v -0.905485 0.075385 -0.008733
v -0.917153 0.089291 -0.025048
v -0.917153 0.089291 0.025048
v -0.905485 0.075385 0.008733
v -1.002113 -0.020945 -0.025048
v -1.018919 -0.021593 -0.008718
v -1.018919 -0.021593 0.008717
v -1.002113 -0.020945 0.025048
v -0.933947 -0.018315 -0.008718
v -0.950518 -0.018954 -0.025048
v -0.950518 -0.018954 0.025048
v -0.933947 -0.018315 0.008717
v -1.000833 -0.069490 -0.025048
v -1.017635 -0.073335 -0.008697
v -1.017635 -0.073335 0.008696
v -1.000833 -0.069490 0.025048
v -0.906171 -0.047827 -0.008697
v -0.920753 -0.051164 -0.025048
v -0.920753 -0.051164 0.025048
v -0.906171 -0.047827 0.008696
v -1.001866 -0.089283 -0.003508
v -0.985001 -0.085423 -0.019873
v -0.985001 -0.085423 0.019872
v -1.001866 -0.089283 0.003508
v -0.928165 -0.072417 -0.019873
v -0.913434 -0.069045 -0.003508
v -0.913434 -0.069045 0.003508
v -0.928165 -0.072417 0.019872
v -0.389131 0.448997 0.027261
v -0.322109 0.505235 0.027261
v -0.389131 0.448997 -0.027261
v -0.322109 0.505235 -0.027261
v -0.259472 0.450260 -0.027261
v -0.345868 0.377766 -0.027261
v -0.345868 0.377766 0.027261
v -0.259472 0.450260 0.027261
v -0.169356 0.408075 -0.017734
v -0.319972 0.281693 -0.017734
v -0.319972 0.281693 0.017734
v -0.169356 0.408075 0.017734
v -0.118591 0.400814 -0.007950
v -0.321637 0.230438 -0.007950
v -0.321637 0.230438 0.007949
v -0.118591 0.400814 0.007949
v -0.154375 0.340371 -0.007950
v -0.194709 0.285351 -0.007950
v -0.255898 0.255183 -0.007950
v -0.154375 0.340371 0.007949
v -0.194709 0.285351 0.007949
v -0.255898 0.255183 0.007949
v -0.404714 0.444861 -0.027261
v -0.404714 0.444861 0.027261
v -0.464784 0.539156 0.027261
v -0.474119 0.550282 0.012737
v -0.407097 0.606521 0.012737
v -0.397762 0.595395 0.027261
v -0.474119 0.550282 -0.012737
v -0.464784 0.539156 -0.027261
v -0.397762 0.595395 -0.027261
v -0.407097 0.606521 -0.012737
v -0.485300 0.540900 -0.012737
v -0.475965 0.529774 -0.027261
v -0.475965 0.529774 0.027261
v -0.485300 0.540900 0.012737
vt 1.000000 0.750000
vt 1.000000 1.000000
vt 0.833333 1.000000
vt 0.833333 0.750000
vt 0.666667 0.500000
vt 0.666667 0.702002
vt 0.637363 0.750000
vt 0.500000 0.750000
vt 0.500000 0.500000
vt 0.500000 1.000000
vt 0.333333 1.000000
vt 0.333333 0.750000
vt 0.109280 0.250000
vt 0.109280 0.168755
vt 0.109280 0.168755
vt 0.109280 0.250000
vt 0.166667 0.500000
vt 0.166667 0.725128
vt 0.151482 0.750000
vt -0.000000 0.750000
vt -0.000000 0.500000
vt 0.750000 0.490000
vt 0.957846 0.370000
vt 0.957846 0.130000
vt 0.750000 0.010000
vt 0.542154 0.130000
vt 0.542154 0.250000
vt 0.542154 0.370000
vt 0.250000 0.412490
vt 0.390720 0.331245
vt 0.457846 0.370000
vt 0.250000 0.490000
vt 0.390720 0.168755
vt 0.457846 0.130000
vt 0.250000 0.087510
vt 0.250000 0.010000
vt 0.042154 0.130000
vt 0.109280 0.331245
vt 0.042154 0.370000
vt 0.042154 0.250000
vt 0.390720 0.168755
vt 0.250000 0.087510
vt 0.250000 0.412490
vt 0.390720 0.331245
vt 0.109280 0.331245
vt 0.250000 1.000000
vt 0.250000 0.750000
vt 0.333333 0.500000
vt 0.250000 0.500000
vt 0.166667 1.000000
vt 0.166667 0.774872
vt 0.181786 0.750000
vt -0.000000 1.000000
vt 0.666667 1.000000
vt 0.666667 0.797998
vt 0.695970 0.750000
vt 1.000000 0.500000
vt 0.833333 0.500000
vt 0.375000 0.794967
vt 0.625000 0.794850
vt 0.625000 0.957209
vt 0.375000 0.957174
vt 0.375000 0.292826
vt 0.375000 0.455033
vt 0.375000 0.445202
vt 0.375000 0.301923
vt 0.375000 0.081329
vt 0.375000 0.168671
vt 0.375000 0.168635
vt 0.375000 0.081365
vt 0.375000 0.948077
vt 0.375000 0.804798
vt 0.375000 0.581309
vt 0.375000 0.668691
vt 0.375000 0.668671
vt 0.375000 0.581329
vt 0.625000 0.292791
vt 0.625000 0.455150
vt 0.375000 0.668635
vt 0.375000 0.581365
vt 0.375000 0.081309
vt 0.625000 0.081302
vt 0.625000 0.168698
vt 0.375000 0.168691
vt 0.625000 0.581302
vt 0.625000 0.668698
vt 0.669850 0.500000
vt 0.832209 0.500000
vt 0.875000 0.581302
vt 0.875000 0.668698
vt 0.832210 0.750000
vt 0.669850 0.750000
vt 0.375000 0.081419
vt 0.375000 0.168581
vt 0.375000 0.168504
vt 0.375000 0.081496
vt 0.375000 0.942944
vt 0.375000 0.810715
vt 0.375000 0.439285
vt 0.375000 0.307056
vt 0.375000 0.581419
vt 0.375000 0.668581
vt 0.375000 0.668504
vt 0.375000 0.581496
vt 0.375000 0.438097
vt 0.375000 0.307436
vt 0.375000 0.942564
vt 0.375000 0.811903
vt 0.375000 0.081602
vt 0.375000 0.168398
vt 0.375000 0.147066
vt 0.375000 0.102934
vt 0.375000 0.950555
vt 0.375000 0.798753
vt 0.375000 0.451247
vt 0.375000 0.299445
vt 0.375000 0.581602
vt 0.375000 0.668398
vt 0.375000 0.647066
vt 0.375000 0.602934
vt 0.375000 0.467294
vt 0.375000 0.287684
vt 0.375000 0.962316
vt 0.375000 0.782706
vt 0.375000 0.952321
vt 0.375000 0.791646
vt 0.125000 0.602934
vt 0.172679 0.500000
vt 0.333354 0.500000
vt 0.333354 0.750000
vt 0.172679 0.750000
vt 0.125000 0.647066
vt 0.375000 0.458354
vt 0.375000 0.297679
vt 0.375000 0.000000
vt 0.625000 0.000000
vt 0.375000 0.000000
vt 0.375000 0.000000
vt 0.375000 0.000000
vt 0.375000 0.000000
vt 0.375000 0.000000
vt 0.375000 0.000000
vt 0.125000 0.566597
vt 0.153962 0.500000
vt 0.375000 0.500000
vt 0.375000 0.750000
vt 0.153962 0.750000
vt 0.125000 0.683403
vt 0.375000 0.500000
vt 0.625000 0.500000
vt 0.625000 0.500000
vt 0.375000 0.500000
vt 0.847538 0.500000
vt 0.875000 0.566597
vt 0.875000 0.683403
vt 0.847538 0.750000
vt 0.625000 0.750000
vt 0.375000 0.750000
vt 0.397838 0.278428
vt 0.625000 0.277462
vt 0.375000 0.278962
vt 0.625000 0.750000
vt 0.375000 0.750000
vt 0.375000 0.750000
vt 0.625000 0.750000
vt 0.625000 0.500000
vt 0.625000 0.750000
vt 0.625000 0.500000
vt 0.375000 0.500000
vt 0.562500 0.500000
vt 0.562500 0.750000
vt 0.500000 0.500000
vt 0.437500 0.500000
vt 0.375000 0.500000
vt 0.375000 0.750000
vt 0.437500 0.750000
vt 0.500000 0.750000
vt 0.396376 0.066597
vt 0.625000 0.066597
vt 0.625000 0.183403
vt 0.396376 0.183403
vt 0.375000 0.183403
vt 0.375000 0.066597
vt 0.375000 0.000000
vt 0.625000 0.000000
vt 0.375000 0.000000
vt 0.625000 0.972538
vt 0.397838 0.971572
vt 0.375000 0.971038
vn 0.4982 0.0838 -0.8630
vn 0.5085 0.0867 0.8567
vn -0.4982 0.0838 0.8630
vn 0.6056 0.7878 -0.1122
vn -0.5013 0.0843 -0.8611
vn 0.0000 -1.0000 -0.0000
vn 0.0104 0.9998 -0.0181
vn 0.0209 0.9998 0.0000
vn 0.0104 0.9998 0.0181
vn -0.0104 0.9998 0.0181
vn -0.0857 0.9702 0.2267
vn -0.0104 0.9998 -0.0181
vn -0.4344 0.4953 -0.7524
vn -0.4344 0.4953 0.7524
vn 0.4344 0.4953 0.7524
vn 0.4344 0.4953 -0.7524
vn -0.8687 0.4953 0.0000
vn -0.0857 0.9702 -0.2267
vn -0.9962 0.0857 -0.0125
vn 0.6056 0.7878 0.1122
vn -0.9963 0.0859 -0.0038
vn -0.9961 0.0861 0.0207
vn -0.4948 0.0840 -0.8649
vn 0.9962 0.0856 -0.0130
vn 0.4869 0.0856 0.8693
vn 0.8559 -0.1524 0.4942
vn 0.9962 0.0867 0.0120
vn 0.8443 0.2223 0.4875
vn -0.8433 -0.1959 -0.5004
vn -0.9962 0.0870 -0.0036
vn -0.8344 0.2961 -0.4648
vn 0.0000 1.0000 0.0000
vn 0.0000 -0.0000 1.0000
vn -0.0000 0.0000 -1.0000
vn -0.6506 0.7595 0.0000
vn 0.5034 -0.8640 0.0000
vn 0.6349 -0.7726 0.0000
vn -0.6428 0.7660 0.0000
vn 0.6428 -0.7660 0.0000
vn 0.7660 0.6428 -0.0000
vn -0.9177 0.3974 0.0000
vn -0.6214 0.7835 0.0000
vn 0.9568 -0.2906 0.0000
vn 0.6214 -0.7835 0.0000
vn -0.7111 -0.7031 0.0000
vn -0.9997 -0.0248 0.0000
vn 0.9461 -0.3238 0.0000
vn 0.7282 0.6854 0.0000
vn 0.0584 -0.2554 0.9651
vn 0.2231 -0.9748 0.0000
vn 0.0584 -0.2554 -0.9651
vn -0.4502 0.5364 0.7139
vn -0.4502 0.5364 -0.7139
vn 0.4390 -0.5233 -0.7304
vn 0.4390 -0.5233 0.7304
vn 0.3452 -0.5935 -0.7271
vn -0.4490 0.5367 -0.7144
vn -0.4490 0.5367 0.7144
vn 0.3452 -0.5935 0.7271
vn -0.4546 0.5305 0.7155
vn 0.4301 -0.5237 0.7354
vn 0.4301 -0.5237 -0.7354
vn -0.4546 0.5305 -0.7155
vn 0.4167 -0.5273 0.7405
vn 0.4167 -0.5273 -0.7405
vn -0.4334 0.5458 -0.7171
vn -0.4334 0.5458 0.7171
vn -0.6735 0.2913 0.6794
vn 0.6946 -0.2127 0.6872
vn 0.6946 -0.2127 -0.6873
vn -0.6735 0.2913 -0.6794
vn 0.5768 0.5375 0.6152
vn 0.5768 0.5375 -0.6152
vn -0.6958 -0.0179 -0.7180
vn -0.6958 -0.0179 0.7180
vn -0.4504 -0.6466 0.6157
vn 0.7243 -0.3892 0.5692
vn 0.7243 -0.3892 -0.5692
vn -0.4504 -0.6466 -0.6157
vn -0.6415 0.7671 0.0000
vn -0.7660 -0.6428 0.0000
vn 0.2566 -0.9665 0.0000
vn 0.0675 -0.0804 0.9945
vn -0.8547 -0.5191 0.0000
vn 0.6596 0.7516 0.0000
vn 0.1416 0.9899 0.0000
vn -0.9655 -0.2603 0.0000
vn 0.4240 0.9057 0.0000
vn 0.0675 -0.0804 -0.9945
vn 0.8605 -0.5094 0.0000
vn 0.0988 -0.1177 -0.9881
vn 0.0988 -0.1177 0.9881
vn -0.9995 0.0325 0.0000
vn 0.3523 -0.9359 0.0000
vn 0.4422 -0.8969 0.0000
vn 0.8065 -0.5912 0.0000
vn -0.4545 0.5417 0.7071
vn -0.4545 0.5417 -0.7071
usemtl Wood
s off
f 29/1/1 14/2/1 13/3/1 30/4/1
f 5/5/2 37/6/2 36/7/2 31/8/2 7/9/2
f 31/8/3 16/10/3 17/11/3 32/12/3
f 27/13/4 10/14/4 23/15/4 28/16/4
f 11/17/5 41/18/5 40/19/5 29/20/5 1/21/5
f 1/22/6 3/23/6 5/24/6 7/25/6 9/26/6 25/27/6 11/28/6
f 2/29/7 4/30/7 13/31/7 14/32/7
f 4/30/8 6/33/8 15/34/8 13/31/8
f 6/33/9 8/35/9 16/36/9 15/34/9
f 8/35/10 10/14/10 17/37/10 16/36/10
f 27/13/11 12/38/11 18/39/11 26/40/11
f 12/38/12 2/29/12 14/32/12 18/39/12
f 8/35/13 6/33/13 21/41/13 22/42/13
f 4/30/14 2/29/14 20/43/14 19/44/14
f 2/29/15 12/38/15 24/45/15 20/43/15
f 10/14/16 8/35/16 22/42/16 23/15/16
f 6/33/17 4/30/17 19/44/17 21/41/17
f 10/14/18 27/13/18 26/40/18 17/37/18
f 32/12/19 17/11/19 26/46/19 33/47/19
f 12/38/20 27/13/20 28/16/20 24/45/20
f 9/48/21 32/12/21 33/47/21 25/49/21
f 33/47/22 26/46/22 18/50/22 39/51/22 38/52/22
f 40/19/23 39/51/23 18/50/23 14/53/23 29/20/23
f 7/9/3 31/8/3 32/12/3 9/48/3
f 30/4/24 13/3/24 15/54/24 35/55/24 34/56/24
f 36/7/25 35/55/25 15/54/25 16/10/25 31/8/25
f 1/57/1 29/1/1 30/4/1 3/58/1
f 34/56/26 35/55/26 36/7/26
f 3/58/27 30/4/27 34/56/27 37/6/27 5/5/27
f 36/7/28 37/6/28 34/56/28
f 38/52/29 39/51/29 40/19/29
f 25/49/30 33/47/30 38/52/30 41/18/30 11/17/30
f 40/19/31 41/18/31 38/52/31
usemtl Wood_l_shade
f 19/44/32 20/43/32 24/45/32 28/16/32 23/15/32 22/42/32 21/41/32
usemtl Handle_Axe
f 50/59/33 52/60/33 45/61/33 43/62/33
f 46/63/34 55/64/34 63/65/34 58/66/34
f 60/67/35 59/68/35 67/69/35 68/70/35
f 50/59/33 43/62/33 61/71/33 64/72/33
f 54/73/36 51/74/36 65/75/36 62/76/36
f 46/63/34 48/77/34 57/78/34 55/64/34
f 62/76/37 65/75/37 73/79/37 70/80/37
f 42/81/38 44/82/38 49/83/38 47/84/38
f 54/73/39 56/85/39 53/86/39 51/74/39
f 56/85/40 57/87/40 48/88/40 49/89/40 44/90/40 45/91/40 52/92/40 53/86/40
f 76/93/41 75/94/41 83/95/41 84/96/41
f 64/72/33 61/71/33 69/97/33 72/98/33
f 68/70/42 67/69/42 75/94/42 76/93/42
f 58/66/34 63/65/34 71/99/34 66/100/34
f 78/101/43 81/102/43 89/103/43 86/104/43
f 66/100/34 71/99/34 79/105/34 74/106/34
f 70/80/44 73/79/44 81/102/44 78/101/44
f 72/98/33 69/97/33 77/107/33 80/108/33
f 92/109/45 91/110/45 98/111/45 101/112/45
f 80/108/33 77/107/33 85/113/33 88/114/33
f 84/96/46 83/95/46 91/110/46 92/109/46
f 74/106/34 79/105/34 87/115/34 82/116/34
f 94/117/47 97/118/47 104/119/47 103/120/47
f 82/116/34 87/115/34 95/121/34 90/122/34
f 86/104/48 89/103/48 97/118/48 94/117/48
f 88/114/33 85/113/33 93/123/33 96/124/33
f 96/124/49 93/123/49 100/125/49 105/126/49
f 98/127/50 99/128/50 102/129/50 103/120/50 104/119/50 105/130/50 100/131/50 101/132/50
f 90/122/51 95/121/51 102/133/51 99/134/51
f 43/135/52 45/136/52 44/82/52 42/81/52
f 48/77/53 46/63/53 47/84/53 49/83/53
f 56/85/54 54/73/54 55/64/54 57/78/54
f 52/60/55 50/59/55 51/74/55 53/86/55
f 54/73/56 62/76/56 63/65/56 55/64/56
f 59/68/57 47/84/57 46/63/57 58/66/57
f 61/137/58 43/135/58 42/81/58 60/67/58
f 50/59/59 64/72/59 65/75/59 51/74/59
f 60/67/60 68/70/60 69/138/60 61/137/60
f 73/79/61 65/75/61 64/72/61 72/98/61
f 62/76/62 70/80/62 71/99/62 63/65/62
f 67/69/63 59/68/63 58/66/63 66/100/63
f 72/98/64 80/108/64 81/102/64 73/79/64
f 79/105/65 71/99/65 70/80/65 78/101/65
f 66/100/66 74/106/66 75/94/66 67/69/66
f 77/139/67 69/138/67 68/70/67 76/93/67
f 76/93/68 84/96/68 85/140/68 77/139/68
f 89/103/69 81/102/69 80/108/69 88/114/69
f 78/101/70 86/104/70 87/115/70 79/105/70
f 83/95/71 75/94/71 74/106/71 82/116/71
f 88/114/72 96/124/72 97/118/72 89/103/72
f 95/121/73 87/115/73 86/104/73 94/117/73
f 82/116/74 90/122/74 91/110/74 83/95/74
f 93/141/75 85/140/75 84/96/75 92/109/75
f 92/109/76 101/112/76 100/142/76 93/141/76
f 104/119/77 97/118/77 96/124/77 105/126/77
f 94/117/78 103/120/78 102/133/78 95/121/78
f 98/111/79 91/110/79 90/122/79 99/134/79
f 42/81/80 47/84/80 59/68/80 60/67/80
usemtl M
f 138/143/81 139/144/81 128/145/81 129/146/81 140/147/81 141/148/81
f 108/149/34 109/150/34 110/151/34 111/152/34
f 109/150/40 136/153/40 137/154/40 132/155/40 133/156/40 107/157/40
f 108/149/82 106/158/82 129/146/82 128/145/82
f 135/159/34 136/160/34 109/150/34 108/149/34 128/145/34 139/161/34
f 113/162/83 112/163/83 116/164/83 117/165/83
f 107/157/33 106/158/33 112/163/33 113/162/33
f 106/158/84 108/149/84 111/152/84 112/163/84
f 109/150/85 107/157/85 113/162/85 110/151/85
f 114/166/86 117/165/86 121/167/86 118/168/86
f 112/163/87 111/152/87 115/169/87 116/164/87
f 110/151/88 113/162/88 117/165/88 114/166/88
f 111/152/89 110/151/89 114/166/89 115/169/89
f 122/170/90 118/168/90 121/167/90 125/171/90
f 115/169/91 114/166/91 118/168/91 122/170/91 123/172/91 124/173/91 119/174/91
f 117/165/92 116/164/92 120/175/92 127/176/92 126/177/92 125/171/92 121/167/92
f 116/164/93 115/169/93 119/174/93 120/175/93
f 119/174/94 124/173/94 127/176/94 120/175/94
f 124/173/95 123/172/95 126/177/95 127/176/95
f 123/172/96 122/170/96 125/171/96 126/177/96
f 131/178/38 132/179/38 137/180/38 134/181/38 138/182/38 141/183/38
f 130/184/97 133/185/97 132/179/97 131/178/97
f 136/160/98 135/159/98 134/181/98 137/180/98
f 131/178/97 141/183/97 140/186/97 130/184/97
f 138/182/98 134/181/98 135/159/98 139/161/98
f 106/158/33 107/157/33 133/187/33 130/188/33 140/189/33 129/146/33
